<svg width="750" height="773" viewBox="0 0 750 773" fill="none" xmlns="http://www.w3.org/2000/svg">
<g opacity="0.15">
<path d="M-1.27875 -362.957C140.076 -362.957 281.43 -362.957 422.802 -362.957C425.962 -359.765 428.395 -355.494 432.417 -353.565C447.744 -346.272 462.986 -338.425 479.36 -333.218C505.299 -324.96 531.914 -317.766 560.219 -317.61C569.783 -317.554 576.036 -322.605 576.424 -330.636C576.61 -334.367 576.019 -338.156 575.613 -341.901C574.853 -348.925 573.991 -355.948 573.163 -362.957C599.068 -362.957 624.973 -362.957 650.878 -362.957C652.568 -360.361 653.7 -357.31 656.032 -355.239C668.993 -343.732 684.54 -335.133 702.114 -329.699C720.533 -324.009 739.358 -319.54 759.619 -321.427C784.257 -323.711 806.073 -332.239 827.652 -341.49C841.829 -347.563 856.565 -347.676 871.097 -343.959C891.088 -338.851 907.277 -328.082 923.144 -317.014C945.923 -301.123 964.883 -282.55 978.013 -260.26C1003.21 -217.452 1006.23 -171.85 999.812 -125.424C997.26 -106.951 992.309 -88.718 989.284 -70.2727C986.496 -53.3881 993.188 -37.4968 1016.1 -30.0903C1042.33 -21.6054 1069.96 -21.4635 1097.33 -19.7041C1108.81 -18.9663 1120.31 -18.6825 1131.74 -17.6326C1153.27 -15.6603 1174.17 -17.8738 1190.49 -30.0903C1206.31 -41.9236 1221.16 -55.1192 1233.85 -69.3504C1269.34 -109.15 1310.47 -144.607 1351.42 -180.278C1362.31 -189.77 1373.37 -199.319 1382.78 -209.833C1415.61 -246.511 1453.24 -279.556 1490.62 -312.857C1507.03 -327.486 1521.09 -343.76 1529.46 -362.957C1534.53 -362.957 1539.6 -362.957 1544.66 -362.957C1544.66 -342.625 1544.66 -322.293 1544.66 -301.96C1542.54 -300.882 1540.2 -300.03 1538.33 -298.697C1529.34 -292.298 1520.69 -285.544 1511.53 -279.315C1480.57 -258.259 1454.78 -233.074 1429.1 -207.733C1414.01 -192.835 1398.38 -178.178 1381.51 -164.727C1356.82 -145.033 1331.8 -125.708 1311.6 -102.538C1293.2 -81.4392 1279.82 -58.3825 1277.98 -31.8213C1276.13 -5.35933 1287 18.3926 1303.1 40.4986C1332.96 81.4756 1368.52 118.976 1406.01 155.101C1438.71 186.6 1467.39 220.156 1489.37 257.685C1497.45 271.462 1506 285.055 1513.86 298.932C1520.13 309.985 1525.81 321.265 1531.52 332.531C1536.01 341.413 1533.55 349.855 1527.28 357.304C1521.14 364.611 1514.62 371.791 1507.27 378.218C1486.87 396.068 1469.55 415.691 1456.39 437.825C1438.83 467.323 1426.26 498.297 1417.1 530.364C1409.87 555.648 1407.86 581.046 1417.37 605.848C1433.05 646.74 1450.29 687.22 1466.97 727.842C1473 742.556 1479.34 757.17 1485.54 771.827C1472.58 771.827 1459.63 771.827 1446.67 771.827C1437.06 751.467 1428.86 730.51 1417.47 710.873C1400.35 681.318 1375.29 656.402 1347.26 633.502C1339.28 626.989 1332.35 619.313 1326.29 611.438C1315.22 597.093 1308.88 581.316 1310.17 563.892C1311.62 544.084 1324.01 528.775 1339.57 515.026C1362.77 494.523 1383.74 472.474 1397.5 446.65C1413.55 416.514 1428.24 385.781 1441.57 354.722C1454.33 324.982 1451.67 294.874 1438.24 265.418C1423.17 232.415 1397.02 206.677 1363.6 185.904C1331.34 165.856 1303.29 142.147 1276.2 117.43C1260.86 103.426 1245.41 89.1659 1227.82 77.2899C1193.64 54.2191 1169.34 55.0562 1135.78 69.9543C1104.89 83.6748 1085.08 106.164 1071.75 132.725C1059.77 156.619 1053.16 181.605 1050.68 207.528C1047.96 235.849 1057.77 258.182 1090.51 267.22C1110.01 272.598 1129.52 277.989 1148.75 284.048C1174.78 292.249 1195.16 305.799 1202 329.665C1210.55 359.461 1209.35 389.172 1197.45 418.273C1192.32 430.844 1182.65 440.45 1167.22 445.161C1156.97 448.296 1146.66 448.424 1135.78 447.218C1106.29 443.955 1081.03 433.441 1058.99 417.152C1044.24 406.241 1035.18 391.896 1029.03 376.615C1023.1 361.887 1018.2 346.748 1014.6 331.495C1008.11 304.068 991.616 284.587 959.307 274.783C938.454 268.454 918.041 260.863 898.118 252.691C869.272 240.857 846.291 223.419 833.211 198.234C816.347 165.714 813.271 131.633 819.101 96.8845C821.805 80.7803 826.029 64.8464 829.443 48.8274C833.279 30.7226 821.382 17.2717 799.854 14.3204C776.027 11.0428 754.516 16.4345 734.779 26.7781C715.464 36.9088 697.399 48.6855 678.203 58.9865C644.913 76.8359 609.427 89.1375 568.685 86.768C556.738 86.0727 547.427 80.1135 546.447 70.8057C545.872 65.4423 545.737 59.8094 547.055 54.588C550.773 39.8175 555.082 25.1464 559.627 10.5462C569.023 -19.619 579.111 -49.5714 594.201 -78.2467C605.32 -99.4021 615.105 -120.983 615.814 -144.778C616.558 -169.721 609.207 -192.409 592.309 -212.827C567.975 -242.226 534.094 -260.472 493.572 -269.865C466.044 -276.25 438.45 -276.633 412.764 -263.58C395.528 -254.825 384.882 -240.977 375.03 -226.987C354.431 -197.73 335.268 -167.763 314.416 -138.634C296.03 -112.924 271.224 -91.6693 244.085 -72.3301C223.114 -57.3752 201.265 -43.1864 181.426 -27.2383C157.177 -7.74304 136.544 14.4339 122.011 40.1439C110.791 59.9797 99.9591 79.9716 88.9076 99.8784C80.1205 115.713 64.6078 124.865 44.803 127.646C26.3331 130.242 7.4408 131.108 -11.2994 132.03C-33.9432 133.137 -42.3586 142.175 -36.309 160.436C-32.0844 173.22 -23.9732 184.315 -13.04 193.722C18.4754 220.865 73.3274 223.008 111.315 198.433C131.593 185.309 154.051 176.994 179.195 173.106C209.933 168.353 240.334 162.507 269.314 152.22C292.87 143.849 316.663 135.889 340.338 127.759C377.869 114.876 416.735 110.619 456.902 115.145C475.71 117.259 488.773 130.058 490.564 145.977C492.457 162.862 493.741 180.016 498.574 196.376C508.189 228.896 520.423 260.863 530.883 293.228C539.4 319.591 548.88 345.939 544.503 373.905C542.476 386.888 537.558 398.565 526.05 408C510.419 420.799 491.105 427.609 470.725 432.689C450.498 437.74 429.95 441.869 409.857 447.246C387.822 453.149 371.329 465.422 359.129 481.711C342.957 503.292 328.019 525.554 310.884 546.553C276.901 588.197 230.87 617.468 175.596 637.205C147.19 647.35 119.02 658.247 91.9324 670.648C56.3445 686.922 41.2881 714.973 47.3546 748.019C48.8079 755.936 49.8894 763.896 51.1567 771.842C31.4533 771.842 11.733 771.842 -7.97048 771.842C-8.39293 768.578 -8.83231 765.301 -9.25476 762.023C-11.6543 742.84 -15.7775 723.671 -15.9296 704.474C-16.0817 685.475 -9.76174 666.675 9.56994 654.785C25.2685 645.122 42.6738 636.907 60.5015 630.252C103.66 614.162 147.95 600.201 190.906 583.756C226.697 570.05 255.745 548.497 275.685 519.85C297.163 489.004 302.823 456.881 274.958 426.346C252.433 401.686 232.256 376.033 216.558 347.869C213.752 342.846 209.038 338.49 204.746 334.162C188.591 317.86 166.437 310.879 142.746 306.239C115.945 301.003 88.9583 299.045 61.6168 302.337C43.8229 304.48 29.9663 311.134 22.0747 325.493C13.4228 341.243 15.7041 358.354 12.3075 374.742C7.50839 397.926 4.12871 421.466 -3.01928 444.139C-15.203 482.747 -38.8775 517.438 -60.1525 552.853C-72.3869 573.228 -88.9304 590.737 -113.01 602.159C-128.929 609.693 -145.506 616.234 -161.542 623.598C-186.417 635.006 -208.503 649.322 -225.976 668.349C-254.01 698.883 -263.896 734.142 -264.741 771.827C-328.937 771.827 -393.151 771.827 -457.348 771.827C-467.74 750.998 -475.091 729.389 -477.355 706.928C-480.887 671.797 -490.688 638.141 -506.37 605.465C-518.435 580.351 -527.881 554.357 -524.62 526.888C-522.085 505.605 -518.3 484.265 -512.622 463.422C-502.635 426.744 -499.408 390.463 -510.054 353.388C-513.382 341.767 -513.078 328.941 -511.541 316.923C-508.938 296.534 -497.025 278.798 -483.743 261.97C-469.109 243.411 -453.241 225.605 -429.736 214.112C-408.664 203.825 -386.544 200.93 -366.823 214.949C-356.228 222.469 -347.762 232.855 -340.834 243.142C-322.769 269.973 -298.655 290.447 -261.412 295.413C-241.725 298.038 -221.075 297.626 -201.101 296.264C-174.825 294.462 -149.933 287.34 -127.154 275.833C-101.705 262.978 -96.9571 248.406 -106.184 225.136C-112.402 209.429 -121.95 194.361 -137.192 183.45C-156.811 169.417 -177.41 156.208 -198.533 143.792C-219.588 131.42 -237.855 117.032 -251.492 98.8284C-267.816 77.0487 -283.464 54.9001 -299.264 32.8509C-324.696 -2.66349 -356.025 -33.4956 -398.863 -55.0056C-422.757 -66.9951 -447.53 -77.7785 -471.018 -90.3071C-488.745 -99.7568 -506.572 -109.732 -521.612 -121.863C-545.641 -141.245 -555.983 -166.387 -555.189 -194.367C-554.766 -209.194 -553.871 -224.064 -551.911 -238.792C-545.472 -287.289 -524.265 -329.16 -474.347 -357.793C-472.201 -359.027 -470.866 -361.241 -469.143 -363C-434.231 -363 -399.302 -363 -364.39 -363C-366.806 -360.843 -368.834 -358.162 -371.707 -356.629C-393.54 -344.995 -415.981 -334.112 -437.374 -321.924C-457.297 -310.587 -473.621 -296.072 -485.923 -278.379C-498.647 -260.089 -505.559 -240.509 -508.583 -219.595C-512.96 -189.146 -503.936 -162.528 -478.386 -140.28C-458.057 -122.586 -433.166 -110.015 -408.562 -97.2029C-377.689 -81.1271 -346.444 -65.335 -322.583 -41.7959C-308.592 -28.0045 -296.239 -13.0212 -283.346 1.5364C-268.424 18.3784 -254.889 36.2136 -238.666 52.1049C-205.292 84.8241 -161.779 101.922 -110.949 106.391C-92.986 107.966 -79.8053 98.4878 -81.2416 83.8025C-83.5229 60.8026 -86.8688 37.8878 -89.2345 14.8879C-91.7355 -9.50246 -93.983 -33.9354 -95.5883 -58.3825C-96.4501 -71.578 -95.1996 -84.8587 -95.8587 -98.0684C-97.0923 -122.7 -86.2943 -143.16 -66.895 -161.024C-49.7094 -176.872 -36.7653 -194.665 -33.8756 -216.459C-32.0675 -230.023 -31.6112 -243.73 -29.7355 -257.28C-27.167 -275.739 -25.2744 -294.398 -20.4077 -312.46C-15.9465 -329.614 -7.8522 -346.144 -1.27875 -362.957ZM308.045 -235.273C309.938 -259.99 296.47 -278.577 273.556 -291.957C256.809 -301.747 238.525 -309.948 220.056 -317.341C184.654 -331.515 147.663 -342.256 108.983 -348.159C92.2028 -350.713 75.1186 -349.209 61.7013 -339.589C33.7346 -319.54 24.1363 -292.979 28.7496 -263.111C31.673 -244.212 37.1143 -225.554 41.8796 -206.867C47.9799 -182.931 42.5724 -161.265 24.0011 -142.38C13.8283 -132.022 3.08099 -121.991 -8.27468 -112.555C-50.4022 -77.5373 -56.3673 -30.1896 -34.8219 13.1286C-29.5497 23.7417 -21.2864 32.8934 -10.0659 39.6047C20.6046 57.9365 49.8049 46.5714 72.212 26.4801C91.5775 9.11315 108.56 -10.2119 128.703 -26.8694C151.06 -45.3573 175.41 -62.2277 199.659 -79.0271C228.843 -99.2744 257.046 -120.132 275.921 -148.254C294.087 -175.326 306.558 -203.916 308.045 -235.273ZM-491.212 532.975C-493.121 559.962 -480.465 584.423 -466.557 608.572C-455.049 628.55 -442.866 648.258 -431.916 668.448C-420.644 689.235 -412.854 711.469 -394.875 729.361C-384.212 739.974 -361.821 750.786 -342.997 736.852C-334.7 730.723 -327.856 723.061 -321.113 715.626C-303.438 696.116 -287.57 675.316 -268.407 656.913C-241.303 630.877 -208.587 609.792 -174.554 590.425C-138.51 569.908 -106.927 545.83 -84.9085 513.877C-73.6543 497.531 -61.9607 481.314 -52.4131 464.259C-38.4044 439.216 -30.3777 413.023 -34.8895 384.688C-39.5366 355.431 -61.741 333.879 -95.2672 328.331C-116.069 324.897 -136.601 328.075 -157.2 330.062C-184.507 332.687 -211.849 337.426 -239.123 337.213C-272.649 336.943 -306.125 332.474 -339.634 329.892C-354.133 328.771 -368.8 326.231 -383.113 327.153C-409.711 328.884 -423.078 345.769 -431.73 364.086C-448.51 399.629 -463.735 435.711 -478.656 471.85C-486.7 491.274 -492.276 511.323 -491.212 532.975ZM757.422 -38.7596C782.043 -39.8805 810.398 -40.5757 838.636 -42.6331C859.927 -44.1797 879.834 -50.295 897.154 -61.1068C914.56 -71.9753 927.926 -85.8803 938.471 -101.729C963.852 -139.883 973.518 -179.81 955.234 -222.007C942.645 -251.079 919.224 -271.341 881.101 -274.902C865.267 -276.378 848.47 -275.172 832.789 -272.419C793.872 -265.609 755.242 -262.175 715.852 -269.425C695.287 -273.214 674.452 -275.966 653.667 -278.904C637.241 -281.23 627.592 -273.384 631.209 -260.572C633.591 -252.087 636.346 -243.588 640.013 -235.443C654.664 -202.88 662.183 -169.253 662.724 -134.462C663.045 -114.414 663.586 -94.3651 664.465 -74.3307C665.343 -54.6084 679.572 -42.3493 703.128 -40.9588C719.959 -39.9798 736.806 -39.5825 757.422 -38.7596ZM420.487 395.585C431.555 394.252 442.877 393.741 453.641 391.414C476.995 386.363 494.028 373.976 498.033 353.913C500.889 339.611 500.5 324.074 497.12 309.829C487.252 268.156 463.358 231.479 434.681 196.915C424.475 184.628 411.429 174.823 393.956 170.737C378.832 167.204 363.404 168.169 348.162 171.503C318.252 178.044 292.516 190.927 271.19 209.287C243.443 233.181 241.466 274.556 268.672 302.209C290.809 324.713 315.903 345.159 339.645 366.555C361.461 386.221 388.312 395.557 420.487 395.585ZM1024.26 109.229C1024.26 107.342 1024.26 105.455 1024.26 103.553C1024.2 70.2523 996.5 47.4369 956.839 46.8409C924.564 46.3585 902.004 60.15 883.72 80.2837C869.999 95.3947 862.547 112.946 859.623 131.803C854.165 167.062 870.979 206.379 916.216 222.88C933.824 229.294 952.209 231.081 970.544 226.569C987.577 222.369 996.517 210.437 1002.82 197.497C1016.59 169.261 1022.35 139.55 1024.26 109.229ZM1144.12 363.448C1145.98 351.387 1137.8 343.101 1127.39 336.078C1117.75 329.565 1100.86 328.756 1091.55 333.723C1083.42 338.05 1078.56 349.131 1080.62 358.241C1082.65 367.194 1088.14 374.288 1096.06 380.418C1105.7 387.867 1118.44 390.889 1128.49 386.703C1139.53 382.092 1145.37 374.501 1144.12 363.448Z" stroke="white" stroke-width="2" stroke-miterlimit="10"/>
<path d="M51.0892 771.827C49.8387 763.882 48.7403 755.922 47.2871 748.004C41.2375 714.959 56.277 686.908 91.8649 670.633C118.953 658.247 147.122 647.35 175.528 637.191C230.786 617.44 276.834 588.183 310.816 546.539C327.951 525.525 342.889 503.263 359.061 481.697C371.262 465.408 387.771 453.121 409.79 447.232C429.882 441.855 450.43 437.712 470.658 432.675C491.02 427.595 510.352 420.784 525.983 407.986C537.508 398.551 542.408 386.873 544.436 373.891C548.812 345.925 539.333 319.576 530.816 293.214C520.373 260.849 508.121 228.882 498.506 196.362C493.673 180.002 492.372 162.848 490.496 145.963C488.722 130.044 475.66 117.245 456.835 115.131C416.668 110.619 377.785 114.862 340.27 127.745C316.579 135.875 292.803 143.835 269.247 152.206C240.283 162.507 209.866 168.353 179.128 173.092C153.983 176.98 131.525 185.294 111.247 198.419C73.2598 222.994 18.4078 220.851 -13.1075 193.708C-24.0238 184.301 -32.135 173.206 -36.3765 160.422C-42.4261 142.161 -34.0108 133.122 -11.367 132.016C7.39014 131.108 26.2656 130.242 44.7355 127.631C64.5403 124.836 80.036 115.699 88.84 99.8641C99.8915 79.9574 110.723 59.9655 121.944 40.1296C136.476 14.4339 157.109 -7.75725 181.358 -27.2525C201.197 -43.2007 223.047 -57.3894 244.017 -72.3443C271.156 -91.6835 295.963 -112.938 314.348 -138.648C335.184 -167.778 354.364 -197.744 374.963 -227.001C384.814 -241.006 395.46 -254.84 412.696 -263.594C438.382 -276.648 465.977 -276.264 493.504 -269.88C534.026 -260.472 567.908 -242.24 592.241 -212.841C609.139 -192.423 616.49 -169.736 615.747 -144.792C615.037 -120.997 605.27 -99.4164 594.134 -78.261C579.044 -49.5856 568.955 -19.6332 559.56 10.532C555.014 25.1322 550.705 39.8033 546.987 54.5737C545.669 59.7952 545.805 65.4281 546.379 70.7915C547.359 80.0993 556.687 86.0585 568.617 86.7538C609.359 89.1233 644.829 76.8217 678.135 58.9723C697.332 48.6854 715.396 36.8946 734.711 26.7639C754.448 16.4203 775.96 11.0286 799.786 14.3062C821.315 17.2717 833.211 30.7083 829.375 48.8131C825.979 64.8464 821.737 80.7661 819.034 96.8703C813.204 131.618 816.279 165.7 833.144 198.22C846.206 223.405 869.188 240.843 898.05 252.677C917.99 260.849 938.386 268.454 959.239 274.768C991.549 284.573 1008.04 304.04 1014.53 331.481C1018.13 346.734 1023.03 361.873 1028.96 376.601C1035.11 391.882 1044.17 406.227 1058.92 417.138C1080.94 433.427 1106.2 443.94 1135.71 447.204C1146.59 448.41 1156.9 448.282 1167.16 445.146C1182.58 440.422 1192.23 430.83 1197.39 418.259C1209.28 389.172 1210.5 359.461 1201.93 329.65C1195.09 305.799 1174.71 292.235 1148.69 284.034C1129.47 277.975 1109.96 272.598 1090.44 267.206C1057.72 258.168 1047.89 235.835 1050.61 207.514C1053.11 181.605 1059.7 156.605 1071.68 132.711C1085 106.15 1104.82 83.6606 1135.71 69.9401C1169.27 55.0278 1193.59 54.2048 1227.75 77.2757C1245.34 89.1374 1260.77 103.411 1276.13 117.416C1303.22 142.132 1331.27 165.842 1363.53 185.89C1396.97 206.663 1423.12 232.401 1438.17 265.404C1451.62 294.86 1454.28 324.968 1441.5 354.708C1428.17 385.767 1413.48 416.499 1397.43 446.636C1383.69 472.446 1362.72 494.509 1339.5 515.012C1323.94 528.761 1311.55 544.07 1310.1 563.878C1308.81 581.301 1315.15 597.079 1326.22 611.424C1332.3 619.299 1339.21 626.961 1347.19 633.487C1375.23 656.388 1400.27 681.303 1417.4 710.858C1428.79 730.51 1436.99 751.452 1446.6 771.813C1434.77 771.813 1422.95 771.813 1411.12 771.813C1401 747.664 1387.09 725.09 1364.14 708.021C1344.45 693.378 1322.72 680.651 1301.46 667.554C1281.22 655.083 1263.26 641.093 1253.08 621.313C1245.83 607.224 1237.71 593.376 1231.96 578.861C1217.78 543.034 1190.39 518.218 1149.36 502.852C1118.79 491.402 1089.24 478.05 1059.02 465.933C1022.07 451.106 998.764 427.581 989.96 393.656C986.209 379.169 980.801 364.895 974.853 350.919C968.263 335.482 959.408 320.499 942.577 311.219C921.032 299.343 898.963 287.907 876.082 277.989C834.884 260.126 803.741 235.139 787.907 197.866C780.066 179.406 772.276 160.918 763.877 142.643C754.296 121.786 734.694 112.818 708.688 117.572C668.199 124.95 630.414 138.401 594.86 155.995C564.224 171.162 551.313 195.056 553.24 224.086C554.288 239.765 557.566 255.571 562.331 270.781C570.577 297.03 581.038 322.783 590.044 348.862C596.314 367.052 600.64 385.54 596.263 404.638C589.994 431.979 569.09 448.679 539.332 457.902C514.036 465.748 487.995 471.906 462.445 479.213C432.653 487.727 407.475 501.972 389.36 523.851C367.375 550.412 346.066 577.371 324.403 604.103C306.659 625.996 284.455 643.632 255.491 654.799C226.866 665.838 197.817 676.181 169.783 688.213C144.74 698.954 123.076 713.625 116.266 738.186C113.241 749.097 113.241 760.59 111.856 771.813C91.6452 771.827 71.3672 771.827 51.0892 771.827ZM230.651 117.955C252.754 118.324 272.897 113.045 292.583 106.519C331.821 93.4934 370.383 78.9358 410.128 67.1592C460.096 52.3603 494.958 25.5862 513.934 -15.9016C528.957 -48.7484 544.487 -81.4535 559.053 -114.442C566.944 -132.292 571.456 -150.51 564.917 -169.878C552.26 -207.392 499.824 -231.357 455.838 -219.339C434.124 -213.408 418.729 -200.511 405.126 -186.393C381.975 -162.372 360.565 -137.173 337.82 -112.881C317.626 -91.3004 293.986 -72.472 268.79 -55.0199C242.801 -37.0144 215.73 -19.9312 194.573 2.44442C175.089 23.0606 160.759 45.493 162.652 72.9339C163.531 85.7463 169.952 96.544 181.612 104.944C195.891 115.216 212.924 118.281 230.651 117.955ZM1260.84 376.672C1263.65 388.973 1265.91 404.964 1271.11 420.231C1277.23 438.151 1296.77 445.487 1317.84 439.769C1330.7 436.279 1340.35 429.085 1348.29 420.359C1367.06 399.714 1375.39 375.551 1380.78 350.437C1385.13 330.218 1386.29 310.226 1378.06 290.319C1368.94 268.227 1351.04 254.578 1323.87 250.463C1303.49 247.37 1281.61 251.683 1275.51 274.683C1273.38 282.728 1271.4 290.844 1270.3 299.017C1267.06 323.606 1264.27 348.238 1260.84 376.672ZM1165.25 143.395C1139.75 143.211 1125.28 152.022 1115.79 166.707C1099.58 191.807 1110.92 220.369 1142.42 227.25C1152.15 229.379 1162.12 231.677 1172.06 231.933C1185.42 232.287 1199.06 231.479 1211.18 225.519C1223.21 219.603 1228.14 209.983 1225.74 198.603C1223.04 185.748 1216.74 174.341 1207.29 164.111C1195.48 151.298 1179.95 144.246 1165.25 143.395Z" stroke="white" stroke-width="2" stroke-miterlimit="10"/>
<path d="M111.906 771.827C113.275 760.604 113.292 749.097 116.317 738.2C123.127 713.625 144.79 698.968 169.834 688.227C197.868 676.195 226.916 665.852 255.542 654.813C284.506 643.647 306.727 626.01 324.453 604.117C346.134 577.371 367.426 550.427 389.411 523.865C407.526 501.986 432.721 487.741 462.496 479.228C488.046 471.921 514.086 465.763 539.383 457.916C569.141 448.694 590.044 431.994 596.314 404.652C600.69 385.54 596.364 367.066 590.095 348.876C581.088 322.783 570.628 297.045 562.382 270.796C557.617 255.599 554.321 239.779 553.291 224.101C551.364 195.085 564.274 171.177 594.911 156.009C630.482 138.415 668.25 124.964 708.738 117.586C734.745 112.847 754.347 121.814 763.928 142.657C772.327 160.947 780.134 179.42 787.958 197.88C803.774 235.153 834.935 260.14 876.133 278.003C899.013 287.921 921.083 299.357 942.628 311.233C959.459 320.513 968.313 335.496 974.904 350.933C980.869 364.909 986.26 379.183 990.011 393.67C998.815 427.595 1022.12 451.12 1059.07 465.947C1089.29 478.078 1118.84 491.416 1149.41 502.866C1190.44 518.232 1217.82 543.063 1232.01 578.875C1237.76 593.39 1245.89 607.253 1253.13 621.328C1263.31 641.107 1281.25 655.097 1301.51 667.569C1322.77 680.665 1344.5 693.392 1364.19 708.035C1387.14 725.104 1401.05 747.678 1411.17 771.827C1397.09 771.827 1383.02 771.827 1368.92 771.827C1363.6 765.23 1359.05 758.064 1352.8 752.148C1331.19 731.659 1303.07 721.387 1271.13 719.67C1248.25 718.435 1225.83 721.869 1214.35 741.52C1208.88 750.885 1206.9 761.682 1203.35 771.827C1113.81 771.827 1024.26 771.827 934.72 771.827C931.678 745.564 916.723 724.678 883.889 718.903C866.163 715.782 848.69 714.718 830.491 716.137C806.495 718.024 783.091 721.344 761.072 729.517C737.601 738.229 718.1 750.856 708.333 771.813C690.319 771.813 672.289 771.813 654.275 771.813C657.874 760.675 660.46 749.211 665.276 738.441C674.587 717.626 691.553 702.459 717.728 696.797C741.369 691.69 765.5 688.213 789.36 683.843C818.983 678.423 848.859 673.798 878.026 666.987C900.838 661.666 919.562 649.875 930.934 631.856C953.477 596.086 956.637 557.819 947.613 518.928C944.115 503.888 932.523 491.856 913.867 487.017C893.944 481.853 873.243 480.859 853.134 484.96C828.345 490.011 803.656 495.885 779.728 503.249C750.257 512.302 722.831 525.1 700.39 543.942C682.275 559.153 670.937 578.279 659.26 597.179C653.329 606.77 646.924 616.404 638.914 624.804C621.087 643.476 595.655 644.413 570.24 642.228C542.34 639.83 514.678 635.644 486.829 632.707C450.261 628.848 414.454 631.856 379.812 642.767C355.698 650.358 334.863 662.347 321.919 681.048C302.655 708.886 295.642 740.016 292.718 771.842C274.13 771.842 255.542 771.842 236.971 771.842C235.349 768.379 234.25 764.634 231.986 761.484C224.398 750.927 213.905 748.927 202.667 756.844C197.192 760.703 193.931 766.776 189.655 771.842C163.717 771.827 137.811 771.827 111.906 771.827ZM704.345 474.148C709.617 474.914 715.008 474.914 720.297 474.148C735.64 471.906 751.102 469.991 766.125 466.727C809.706 457.306 853.27 447.729 896.343 436.832C919.072 431.085 934.787 418.174 936.561 396.706C937.068 390.676 937.187 384.49 936.19 378.53C933.199 360.851 923.634 345.925 907.699 333.978C886.931 318.399 862.04 308.892 836.304 301.174C791.27 287.652 753.806 266.95 732.058 229.62C728.644 223.746 723.778 218.269 718.556 213.388C708.62 204.066 696.234 198.305 680.788 198.802C639.117 200.164 610.289 231.308 617.91 265.815C622.624 287.198 634.065 305.927 647.33 324.145C661.862 344.094 670.43 365.42 669.568 389.215C668.926 406.695 669.281 424.204 669.5 441.684C669.72 459.818 680.586 471.012 700.34 473.566L704.345 474.148ZM1107.07 663.624C1148.75 665.455 1161.78 647.222 1158.88 626.308C1156.54 609.579 1150.41 593.546 1139.27 579.23C1119.37 553.648 1094.54 533.187 1057.98 525.327C1039.83 521.425 1024.62 526.845 1017.27 541.459C1006.59 562.714 1003.14 584.919 1008.33 607.919C1011.27 620.973 1015.71 633.289 1028.69 641.816C1054.33 658.672 1085.37 660.985 1107.07 663.624ZM553.882 516.856C524.58 517.906 497.932 524.376 477.011 539.43C456.328 554.314 455.99 573.895 483.095 583.302C495.397 587.573 508.831 590.098 522.046 591.815C561.216 596.909 590.518 581.699 598.612 550.441C602.059 537.146 595.503 525.455 580.074 521.226C571.676 518.914 562.635 518.261 553.882 516.856Z" stroke="white" stroke-width="2" stroke-miterlimit="10"/>
<path d="M-264.859 771.827C-264.014 734.142 -254.128 698.883 -226.094 668.349C-208.621 649.322 -186.552 635.006 -161.661 623.598C-145.624 616.234 -129.03 609.707 -113.129 602.159C-89.0317 590.751 -72.5052 573.242 -60.2708 552.853C-39.0127 517.438 -15.3212 482.747 -3.13753 444.139C4.01047 421.466 7.39014 397.926 12.1893 374.742C15.5858 358.354 13.3046 341.243 21.9565 325.493C29.8649 311.12 43.7215 304.48 61.4986 302.337C88.857 299.031 115.827 301.003 142.627 306.239C166.336 310.865 188.473 317.86 204.627 334.162C208.92 338.504 213.651 342.846 216.439 347.869C232.138 376.033 252.315 401.686 274.84 426.346C302.705 456.881 297.044 489.004 275.567 519.85C255.627 548.497 226.578 570.05 190.788 583.756C147.832 600.201 103.542 614.148 60.3833 630.252C42.5555 636.907 25.1672 645.122 9.45175 654.785C-9.87994 666.675 -16.1999 685.475 -16.0478 704.474C-15.8957 723.671 -11.7726 742.84 -9.37301 762.023C-8.96745 765.301 -8.52808 768.564 -8.08872 771.842C-29.482 771.842 -50.8922 771.842 -72.2855 771.842C-73.4176 765.329 -74.3471 758.774 -75.7327 752.304C-80.2446 731.219 -83.6412 709.922 -96.0783 690.625C-106.893 673.854 -132.004 666.221 -152.569 674.422C-182.547 686.383 -197.654 706.957 -198.82 734.469C-199.344 746.898 -197.874 759.384 -197.316 771.842C-219.791 771.827 -242.333 771.827 -264.859 771.827ZM16.6166 536.096C17.4108 536.252 18.2051 536.408 18.9824 536.579C15.6027 559.479 35.4413 568.787 57.8485 565.793C71.6207 563.949 85.7139 561.565 98.489 557.053C127.723 546.738 156.907 536.252 180.209 516.885C200.082 500.383 202.938 481.484 193.559 461.052C185.38 443.245 175.309 425.992 165.052 408.937C156.18 394.166 143.878 381.624 125.205 374.586C108.932 368.456 91.0199 370.457 79.546 381.638C71.6376 389.342 63.9657 398.196 60.1129 407.674C48.6896 435.81 38.8886 464.429 29.0876 493.005C24.2378 507.208 20.7398 521.723 16.6166 536.096Z" stroke="white" stroke-width="2" stroke-miterlimit="10"/>
<path d="M-1.27862 -362.957C-7.85207 -346.144 -15.9295 -329.614 -20.5596 -312.431C-25.4263 -294.369 -27.3358 -275.711 -29.8875 -257.252C-31.7632 -243.687 -32.2195 -229.995 -34.0276 -216.431C-36.9172 -194.637 -49.8613 -176.844 -67.0469 -160.995C-86.4293 -143.118 -97.2442 -122.672 -96.0106 -98.04C-95.3516 -84.8303 -96.6021 -71.5497 -95.7403 -58.3542C-94.1349 -33.907 -91.8875 -9.48824 -89.3865 14.9163C-87.0377 37.9162 -83.6749 60.831 -81.3936 83.8309C-79.9403 98.5162 -93.121 107.994 -111.101 106.419C-161.931 101.95 -205.427 84.8383 -238.818 52.1333C-255.041 36.2278 -268.576 18.4068 -283.498 1.56476C-296.391 -12.9929 -308.744 -27.962 -322.735 -41.7676C-346.579 -65.3066 -377.824 -81.0845 -408.714 -97.1745C-433.318 -109.987 -458.209 -122.558 -478.538 -140.251C-504.088 -162.499 -513.129 -189.117 -508.735 -219.566C-505.727 -240.48 -498.816 -260.075 -486.075 -278.35C-473.756 -296.029 -457.449 -310.544 -437.526 -321.895C-416.133 -334.069 -393.692 -344.952 -371.859 -356.601C-368.969 -358.133 -366.958 -360.815 -364.542 -362.972C-343.706 -362.972 -322.871 -362.972 -302.035 -362.972C-303.911 -360.687 -305.482 -358.162 -307.713 -356.161C-325.845 -339.915 -348.522 -328.89 -371.031 -317.695C-396.733 -304.926 -422.199 -291.929 -440.584 -271.369C-475.513 -232.308 -472.995 -184.577 -430.412 -151.716C-406.399 -133.185 -378.179 -118.344 -350.989 -102.907C-323.344 -87.1998 -296.475 -71.2943 -278.327 -46.8755C-266.126 -30.4733 -253.317 -14.3266 -239.511 1.13907C-228.189 13.8238 -214.417 24.8201 -196.758 31.4887C-173.726 40.1864 -152.316 33.5035 -144.509 14.4197C-141.011 5.83556 -138.899 -3.47224 -138.375 -12.5388C-137.074 -35.936 -141.89 -58.6521 -152.907 -80.2615C-158.112 -90.4632 -163.655 -100.537 -169.434 -110.512C-183.392 -134.604 -180.773 -157.647 -160.9 -178.135C-146.925 -192.551 -130.5 -205.307 -114.886 -218.573C-102.01 -229.498 -91.6171 -241.956 -85.8379 -256.358C-78.0308 -275.796 -71.694 -295.66 -65.3909 -315.496C-60.389 -331.217 -56.3841 -347.151 -51.9398 -363C-35.0753 -362.957 -18.177 -362.957 -1.27862 -362.957Z" stroke="white" stroke-width="2" stroke-miterlimit="10"/>
<path d="M292.685 771.828C295.625 740.016 302.621 708.886 321.885 681.034C334.829 662.333 355.665 650.344 379.779 642.753C414.42 631.856 450.228 628.834 486.796 632.693C514.644 635.63 542.307 639.816 570.206 642.214C595.621 644.399 621.053 643.462 638.881 624.79C646.89 616.404 653.295 606.77 659.226 597.164C670.903 578.265 682.242 559.124 700.357 543.928C722.798 525.086 750.241 512.287 779.694 503.235C803.622 495.885 828.328 489.997 853.101 484.946C873.21 480.86 893.91 481.839 913.833 487.003C932.489 491.842 944.098 503.859 947.579 518.914C956.603 557.805 953.46 596.072 930.901 631.842C919.528 649.875 900.822 661.652 877.992 666.973C848.825 673.783 818.932 678.409 789.326 683.829C765.466 688.199 741.318 691.675 717.694 696.783C691.519 702.445 674.536 717.612 665.242 738.427C660.426 749.196 657.841 760.647 654.241 771.799C639.59 771.799 624.956 771.799 610.306 771.799C609.731 760.022 609.748 748.203 608.413 736.498C606.622 720.62 601.231 705.509 585.55 695.265C574.126 687.802 562.044 680.509 548.982 675.458C515.05 662.305 479.073 657.296 442.083 663.326C406.883 669.073 377.649 683.971 356.087 708.376C339.408 727.261 329.033 748.515 324.758 771.799C314.095 771.827 303.398 771.828 292.685 771.828ZM785.981 643.533C797.319 642.639 805.43 642.171 813.491 641.32C853.456 637.077 898.828 614.489 901.413 570.887C903.018 543.758 886.796 524.617 853.54 523.638C829.308 522.929 807.661 530.407 787.265 540.268C763.016 552.016 744.292 568.191 734.305 590.765C724.775 612.275 733.917 632.381 757.659 638.964C767.629 641.745 778.444 642.37 785.981 643.533Z" stroke="white" stroke-width="2" stroke-miterlimit="10"/>
<path d="M324.791 771.828C329.05 748.53 339.425 727.289 356.121 708.404C377.683 683.999 406.917 669.101 442.117 663.355C479.107 657.325 515.067 662.333 549.015 675.486C562.078 680.552 574.143 687.845 585.583 695.294C601.282 705.538 606.655 720.635 608.447 736.526C609.765 748.232 609.748 760.051 610.339 771.828C597.953 771.828 585.566 771.828 573.163 771.828C572.572 767.855 572.217 763.853 571.355 759.923C567.688 743.294 562.399 727.289 548.001 714.477C522.671 691.945 490.48 684.34 455.635 688.824C401.172 695.833 368.034 728.126 353.535 771.828C343.937 771.828 334.373 771.828 324.791 771.828Z" stroke="white" stroke-width="2" stroke-miterlimit="10"/>
<path d="M708.316 771.827C718.083 750.857 737.584 738.243 761.056 729.531C783.074 721.344 806.478 718.038 830.474 716.151C848.673 714.718 866.163 715.796 883.873 718.918C916.706 724.692 931.678 745.578 934.703 771.842C901.481 771.842 868.242 771.842 835.02 771.842C827.23 765.684 807.34 765.684 799.533 771.842C769.133 771.827 738.733 771.827 708.316 771.827Z" stroke="white" stroke-width="2" stroke-miterlimit="10"/>
<path d="M353.519 771.828C368.017 728.126 401.155 695.833 455.618 688.824C490.463 684.34 522.654 691.945 547.985 714.477C562.399 727.289 567.671 743.294 571.338 759.923C572.2 763.853 572.555 767.855 573.146 771.828C560.76 771.828 548.373 771.828 535.97 771.828C530.883 734.838 491.916 708.418 448.605 719.272C416.465 727.332 396.136 745.465 385.609 771.828C374.912 771.828 364.215 771.828 353.519 771.828Z" stroke="white" stroke-width="2" stroke-miterlimit="10"/>
<path d="M385.625 771.827C396.153 745.465 416.482 727.332 448.622 719.272C491.933 708.418 530.917 734.837 535.987 771.827C519.088 771.827 502.19 771.827 485.309 771.827C480.831 762.619 470.675 759.639 460.874 759.625C450.498 759.597 439.7 762.222 434.631 771.827C418.273 771.827 401.949 771.827 385.625 771.827Z" stroke="white" stroke-width="2" stroke-miterlimit="10"/>
<path d="M189.639 771.827C193.914 766.762 197.175 760.689 202.65 756.83C213.888 748.913 224.382 750.913 231.969 761.47C234.233 764.62 235.315 768.351 236.954 771.827C221.171 771.827 205.405 771.827 189.639 771.827Z" stroke="white" stroke-width="2" stroke-miterlimit="10"/>
<path d="M434.614 771.828C439.683 762.222 450.498 759.597 460.857 759.625C470.658 759.654 480.814 762.619 485.292 771.828C468.41 771.828 451.512 771.828 434.614 771.828Z" stroke="white" stroke-width="2" stroke-miterlimit="10"/>
<path d="M308.045 -235.273C306.558 -203.916 294.087 -175.326 275.921 -148.268C257.029 -120.146 228.843 -99.2886 199.659 -79.0413C175.427 -62.2277 151.077 -45.3715 128.703 -26.8836C108.56 -10.2261 91.5776 9.09893 72.2121 26.4659C49.8049 46.5571 20.6046 57.9081 -10.0659 39.5905C-21.2864 32.8792 -29.5327 23.7275 -34.8219 13.1143C-56.3673 -30.1896 -50.4022 -77.5373 -8.27467 -112.569C3.08101 -122.005 13.8284 -132.05 24.0011 -142.394C42.5724 -161.279 47.9799 -182.945 41.8796 -206.882C37.1143 -225.568 31.673 -244.212 28.7496 -263.126C24.1363 -292.993 33.7346 -319.554 61.7013 -339.603C75.1186 -349.223 92.2028 -350.727 108.983 -348.173C147.663 -342.27 184.654 -331.529 220.056 -317.355C238.525 -309.963 256.793 -301.747 273.556 -291.971C296.47 -278.563 309.921 -259.976 308.045 -235.273ZM115.675 -247.958C117.973 -239.743 120.051 -231.471 122.62 -223.326C127.723 -207.151 133.621 -191.146 138.166 -174.858C141.09 -164.344 141.563 -153.362 144.283 -142.791C146.987 -132.263 157.751 -126.985 169.834 -130.206C204.695 -139.499 229.045 -169.622 228.065 -201.093C226.916 -238.054 190.196 -266.446 152.057 -273.143C131.441 -276.775 116.993 -265.978 115.675 -247.958Z" stroke="white" stroke-width="2" stroke-miterlimit="10"/>
<path d="M420.487 395.585C388.312 395.557 361.461 386.221 339.645 366.555C315.92 345.159 290.809 324.713 268.672 302.209C241.466 274.556 243.443 233.181 271.19 209.287C292.516 190.927 318.252 178.044 348.162 171.503C363.404 168.169 378.832 167.204 393.956 170.737C411.446 174.823 424.491 184.627 434.681 196.915C463.358 231.479 487.252 268.156 497.121 309.829C500.5 324.074 500.889 339.611 498.033 353.913C494.028 373.976 477.012 386.348 453.641 391.414C442.877 393.741 431.555 394.252 420.487 395.585ZM377.244 283.963C380.471 298.052 389.546 311.475 407.492 319.974C413.372 322.755 419.219 323.095 424.829 319.491C430.862 315.632 434.428 310.666 432.501 304.167C427.922 288.659 418.797 275.918 400.699 268.908C388.093 264.028 376.99 269.873 377.244 283.963Z" stroke="white" stroke-width="2" stroke-miterlimit="10"/>
<path d="M230.651 117.955C212.924 118.281 195.891 115.216 181.629 104.944C169.969 96.5582 163.548 85.7606 162.669 72.934C160.793 45.5072 175.106 23.0607 194.59 2.44447C215.746 -19.9311 242.801 -37.0143 268.807 -55.0198C294.003 -72.4719 317.643 -91.3003 337.837 -112.881C360.582 -137.187 381.992 -162.386 405.143 -186.393C418.746 -200.497 434.14 -213.408 455.855 -219.339C499.858 -231.357 552.277 -207.392 564.933 -169.877C571.473 -150.51 566.944 -132.292 559.07 -114.442C544.503 -81.4534 528.974 -48.7626 513.951 -15.9015C494.974 25.5863 460.113 52.3604 410.145 67.1592C370.4 78.9358 331.821 93.4934 292.6 106.519C272.913 113.06 252.771 118.324 230.651 117.955ZM493.707 -123.92C493.707 -126.29 493.825 -128.645 493.69 -131.015C492.845 -145.487 479.36 -154.44 463.121 -149.871C452.661 -146.934 441.795 -142.791 433.633 -136.761C410.432 -119.649 388.633 -101.19 366.057 -83.4824C346.979 -68.5275 327.749 -53.6719 308.214 -39.1285C287.869 -23.9891 266.644 -9.67268 246.67 5.77883C235.822 14.1785 228.691 25.0329 225.767 37.5473C222.303 52.4029 229.603 63.087 246.485 67.897C260.797 71.9692 274.874 69.5003 287.666 64.889C325.366 51.3246 362.813 37.2068 399.735 22.2093C420.858 13.6394 440.275 1.93368 452.847 -15.0644C462.394 -27.9619 470.218 -42.0513 476.336 -56.3677C485.663 -78.1048 491.595 -100.736 493.707 -123.92Z" stroke="white" stroke-width="2" stroke-miterlimit="10"/>
<path d="M553.882 516.856C562.635 518.261 571.676 518.914 580.074 521.212C595.503 525.455 602.059 537.132 598.612 550.427C590.518 581.67 561.216 596.881 522.046 591.801C508.831 590.084 495.397 587.559 483.095 583.288C455.99 573.881 456.328 554.3 477.012 539.416C497.932 524.376 524.58 517.92 553.882 516.856Z" stroke="white" stroke-width="2" stroke-miterlimit="10"/>
<path d="M16.6166 536.096C20.7398 521.723 24.2378 507.208 29.1045 493.019C38.9056 464.443 48.7066 435.825 60.1298 407.688C63.9826 398.225 71.6545 389.357 79.5629 381.652C91.0369 370.471 108.949 368.457 125.222 374.6C143.895 381.638 156.18 394.181 165.068 408.951C175.326 426.02 185.397 443.26 193.576 461.066C202.971 481.484 200.099 500.397 180.226 516.899C156.907 536.252 127.74 546.752 98.5059 557.067C85.7308 561.579 71.6545 563.963 57.8655 565.807C35.4583 568.801 15.6027 559.508 18.9993 536.593C18.2051 536.408 17.4109 536.252 16.6166 536.096Z" stroke="white" stroke-width="2" stroke-miterlimit="10"/>
<path d="M785.98 643.533C778.444 642.37 767.629 641.745 757.659 638.979C733.917 632.381 724.775 612.29 734.305 590.78C744.309 568.205 763.016 552.03 787.265 540.282C807.644 530.407 829.291 522.943 853.54 523.653C886.796 524.632 903.018 543.772 901.413 570.901C898.827 614.503 853.455 637.092 813.491 641.334C805.43 642.171 797.319 642.625 785.98 643.533Z" stroke="white" stroke-width="2" stroke-miterlimit="10"/>
<path d="M377.244 283.963C376.99 269.873 388.093 264.013 400.699 268.908C418.797 275.918 427.922 288.659 432.501 304.167C434.428 310.666 430.862 315.632 424.829 319.491C419.219 323.081 413.372 322.755 407.492 319.974C389.546 311.475 380.471 298.066 377.244 283.963Z" stroke="white" stroke-width="2" stroke-miterlimit="10"/>
<path d="M493.707 -123.92C491.595 -100.736 485.647 -78.1048 476.352 -56.3535C470.235 -42.0513 462.411 -27.9477 452.864 -15.0502C440.291 1.9479 420.875 13.6536 399.752 22.2236C362.83 37.2211 325.383 51.3388 287.683 64.9032C274.891 69.5004 260.814 71.9834 246.501 67.9113C229.62 63.1013 222.32 52.4172 225.784 37.5616C228.707 25.0471 235.839 14.1786 246.687 5.79307C266.661 -9.67263 287.885 -23.9749 308.231 -39.1142C327.765 -53.6576 346.996 -68.4991 366.074 -83.4681C388.667 -101.176 410.449 -119.635 433.65 -136.747C441.812 -142.763 452.678 -146.92 463.138 -149.857C479.377 -154.426 492.862 -145.473 493.707 -131C493.842 -128.645 493.707 -126.275 493.707 -123.92Z" stroke="white" stroke-width="2" stroke-miterlimit="10"/>
</g>
</svg>
