<?xml version="1.0" encoding="UTF-8"?>
<!-- Generator: visioncortex VTracer 0.6.3 -->
<svg version="1.1" xmlns="http://www.w3.org/2000/svg" width="1280" height="672">
<path d="M0 0 C422.4 0 844.8 0 1280 0 C1280 221.76 1280 443.52 1280 672 C857.6 672 435.2 672 0 672 C0 450.24 0 228.48 0 0 Z " fill="#313E4E" transform="translate(0,0)"/>
<path d="M0 0 C0.75 -0 1.5 -0.01 2.27 -0.02 C4.77 -0.03 7.26 -0.04 9.75 -0.04 C11.48 -0.05 13.21 -0.05 14.94 -0.06 C18.58 -0.07 22.22 -0.08 25.85 -0.08 C30.5 -0.08 35.15 -0.11 39.8 -0.14 C43.38 -0.16 46.96 -0.16 50.54 -0.16 C52.26 -0.17 53.97 -0.17 55.68 -0.19 C58.09 -0.2 60.49 -0.2 62.9 -0.2 C63.6 -0.2 64.3 -0.21 65.03 -0.22 C70.08 -0.18 73.38 1 77.84 3.16 C79.54 3.73 81.24 4.27 82.96 4.78 C103.35 11.04 122.06 19.89 138.84 33.16 C139.95 34.02 139.95 34.02 141.08 34.89 C162.52 51.64 179.45 72.01 191.84 96.16 C192.39 97.23 192.94 98.31 193.51 99.42 C213.66 140.91 215.38 191.76 200.53 235.19 C194.8 251.54 187.16 266.21 176.84 280.16 C176.44 280.71 176.05 281.25 175.64 281.81 C148.09 319.58 106.75 345.15 60.62 352.52 C21.36 358.27 -19.35 352.47 -54.16 333.16 C-54.8 332.81 -55.44 332.45 -56.1 332.09 C-67.53 325.67 -78.51 318.35 -87.57 308.79 C-89.27 307.06 -91.06 305.53 -92.91 303.97 C-121.94 278.68 -138.84 241.52 -145.16 204.16 C-145.35 203.06 -145.54 201.96 -145.73 200.82 C-151.25 154.22 -140.97 106.85 -111.98 69.34 C-106.94 63.08 -101.64 57.04 -96.16 51.16 C-95.48 50.42 -94.79 49.68 -94.09 48.92 C-87.69 42.26 -80.53 36.7 -73.16 31.16 C-72.32 30.52 -71.47 29.88 -70.6 29.22 C-52.2 15.82 -31.86 7.98 -10.13 1.81 C-6.51 0.62 -4.07 0.01 0 0 Z " fill="#44525E" transform="translate(617.16259765625,-0.1611328125)"/>
<path d="M0 0 C1.65 1.65 3.3 3.3 5 5 C6.1 6.09 7.2 7.18 8.3 8.27 C9.49 9.45 10.68 10.63 11.88 11.81 C12.75 12.68 12.75 12.68 13.65 13.56 C16.61 16.51 19.46 19.49 22.17 22.66 C26.77 27.99 31.78 32.93 36.77 37.9 C38.43 39.56 40.09 41.22 41.75 42.89 C48.34 49.48 55.07 55.75 62.25 61.69 C64.64 63.7 66.91 65.67 69 68 C69 68.66 69 69.32 69 70 C69.56 70.24 70.11 70.47 70.68 70.71 C73.56 72.31 75.66 74.31 78.06 76.56 C82.7 80.86 87.48 84.9 92.41 88.87 C94.72 90.77 96.92 92.73 99.12 94.75 C103.97 99.11 109.16 103.01 114.36 106.94 C119.14 110.56 123.84 114.27 128.5 118.06 C135 123.32 141.75 128.16 148.62 132.93 C151.59 135 154.53 137.11 157.45 139.26 C166.99 146.29 176.74 152.66 186.91 158.73 C190.12 160.68 193.28 162.71 196.44 164.75 C197.01 165.12 197.57 165.48 198.16 165.86 C200.75 167.54 203.34 169.22 205.92 170.9 C211.11 174.25 216.36 177.36 221.8 180.28 C225.03 182.01 228.23 183.79 231.43 185.58 C245.67 193.53 259.98 201.07 274.78 207.96 C276.74 208.88 278.7 209.81 280.66 210.74 C283.71 212.18 286.76 213.6 289.83 215 C291.36 215.71 292.9 216.42 294.44 217.13 C340.05 238.19 388.2 253.35 437 265 C437.69 265.17 438.38 265.33 439.09 265.5 C470.69 273.11 502.8 278.1 535.06 281.88 C535.94 281.98 536.82 282.08 537.72 282.19 C548.23 283.41 558.7 284.31 569.26 284.8 C572.24 284.96 575.16 285.2 578.12 285.56 C582.15 286.02 585.96 286.07 590 286 C590.33 286.66 590.66 287.32 591 288 C395.97 288 200.94 288 0 288 C0 192.96 0 97.92 0 0 Z " fill="#F9FCFE" transform="translate(0,384)"/>
<path d="M0 0 C0.66 0 1.32 0 2 0 C2 94.38 2 188.76 2 286 C-192.7 286 -387.4 286 -588 286 C-587.67 285.34 -587.34 284.68 -587 284 C-585.93 284.02 -585.93 284.02 -584.84 284.04 C-583.88 284.04 -582.92 284.05 -581.94 284.06 C-580.53 284.08 -580.53 284.08 -579.09 284.1 C-575.66 283.99 -572.4 283.49 -569 283 C-566.34 282.77 -563.68 282.59 -561.02 282.41 C-532.37 280.42 -504.07 277.1 -475.85 271.73 C-473.25 271.24 -470.64 270.75 -468.04 270.27 C-458.58 268.54 -449.19 266.59 -439.81 264.44 C-439.07 264.27 -438.33 264.1 -437.56 263.92 C-386.24 252.1 -336.71 235.86 -288.69 214.21 C-286.18 213.08 -283.66 211.98 -281.13 210.89 C-271 206.51 -261.27 201.58 -251.56 196.36 C-248.89 194.94 -246.22 193.56 -243.53 192.19 C-209.37 174.67 -176.92 154.14 -145.98 131.44 C-144.1 130.07 -142.21 128.73 -140.31 127.39 C-132.18 121.68 -124.39 115.63 -116.68 109.36 C-114.36 107.48 -112.02 105.61 -109.69 103.75 C-108.91 103.13 -108.13 102.5 -107.33 101.86 C-105.72 100.57 -104.1 99.29 -102.48 98.02 C-97.42 94.01 -92.55 89.87 -87.81 85.47 C-86 84 -86 84 -84 84 C-83.67 83.01 -83.34 82.02 -83 81 C-81.51 79.67 -79.96 78.41 -78.38 77.19 C-67.8 68.74 -58.1 59.28 -48.66 49.6 C-46.55 47.54 -44.42 45.6 -42.19 43.68 C-37.92 39.98 -33.92 36.06 -29.94 32.06 C-29.27 31.4 -28.6 30.73 -27.91 30.05 C-24 26.13 -20.29 22.09 -16.67 17.89 C-14.16 15.05 -11.47 12.4 -8.75 9.75 C-4.78 5.9 -4.78 5.9 -1.27 1.64 C-0.85 1.1 -0.43 0.56 0 0 Z " fill="#F9FCFE" transform="translate(1278,386)"/>
<path d="M0 0 C24.54 -0.49 47.88 4.22 69.9 15.12 C70.85 15.58 70.85 15.58 71.83 16.05 C89.56 24.68 105.57 37.7 117.9 53.12 C118.66 54.05 119.41 54.98 120.19 55.94 C136.22 75.99 146.07 97.43 151.19 122.64 C151.43 123.46 151.66 124.28 151.9 125.12 C152.56 125.45 153.22 125.78 153.9 126.12 C153.9 127.11 153.9 128.1 153.9 129.12 C151.95 131 151.95 131 149.21 133.12 C148.21 133.92 147.2 134.71 146.16 135.53 C145.36 136.16 145.36 136.16 144.54 136.81 C141.81 138.99 139.18 141.28 136.53 143.56 C130.74 148.49 124.76 153.16 118.7 157.75 C116.76 159.23 114.83 160.72 112.9 162.21 C103.77 169.27 94.49 176.04 85.02 182.64 C82.91 184.12 80.81 185.61 78.72 187.12 C69.09 194.03 59.22 200.47 49.14 206.72 C47.09 208 45.06 209.3 43.02 210.61 C26.42 221.24 9.03 230.64 -8.46 239.7 C-11.64 241.35 -14.8 243.04 -17.95 244.76 C-30.15 251.36 -42.66 256.95 -55.44 262.3 C-61.11 264.67 -66.68 267.2 -72.24 269.81 C-79.43 273.1 -79.43 273.1 -82.54 273.18 C-85.86 271.81 -87.25 269.83 -89.46 267.05 C-91.06 265.16 -92.7 263.65 -94.6 262.06 C-118.55 241.49 -134.08 216.75 -142.1 186.12 C-142.28 185.42 -142.47 184.71 -142.66 183.99 C-152.14 146.24 -143.73 105.1 -124.1 72.12 C-118.12 62.54 -110.92 54.22 -103.1 46.12 C-102.24 45.2 -101.37 44.27 -100.48 43.32 C-74.47 16.11 -37.24 1.46 0 0 Z " fill="#44525E" transform="translate(1040.09765625,340.87890625)"/>
<path d="M0 0 C123.42 0 246.84 0 374 0 C372.94 4.25 371.16 6.93 368.62 10.38 C367.95 11.3 367.95 11.3 367.27 12.24 C365.85 14.17 364.43 16.09 363 18 C362.36 18.86 362.36 18.86 361.71 19.75 C351.23 33.83 338.86 46.2 326.5 58.62 C325.77 59.36 325.04 60.09 324.29 60.85 C304.88 80.19 282.3 96.53 258.32 109.72 C256.8 110.56 255.28 111.41 253.76 112.26 C211.69 135.95 161.74 149.11 113.41 149.17 C111.81 149.17 111.81 149.17 110.18 149.18 C107.94 149.18 105.7 149.19 103.46 149.19 C100.1 149.19 96.75 149.21 93.39 149.22 C60.96 149.31 31.82 143.68 0 136 C0 91.12 0 46.24 0 0 Z " fill="#44525E" transform="translate(0,0)"/>
<path d="M0 0 C2.44 1.9 4.74 3.87 7.02 5.95 C7.62 6.45 8.21 6.96 8.83 7.48 C18.12 15.89 25.13 28.17 29.02 39.95 C29.34 40.86 29.65 41.77 29.98 42.7 C35.62 62.12 33.34 85.33 23.79 103.07 C19.07 110.75 13.65 117.83 7.02 123.95 C3.55 122.65 0.51 121.14 -2.61 119.15 C-3.93 118.31 -3.93 118.31 -5.28 117.46 C-6.21 116.86 -7.14 116.26 -8.11 115.64 C-9.08 115.01 -10.05 114.39 -11.06 113.75 C-24.87 104.85 -38.34 95.59 -51.42 85.64 C-54.4 83.38 -57.43 81.18 -60.48 79.01 C-65.77 75.19 -70.81 71.08 -75.86 66.94 C-80.28 63.31 -84.77 59.77 -89.29 56.26 C-94.59 52.14 -99.58 47.81 -104.5 43.24 C-107.39 40.57 -110.35 37.99 -113.32 35.42 C-114.94 33.99 -116.46 32.48 -117.98 30.95 C-104.13 9.32 -88.19 -6.37 -62.48 -12.86 C-40.14 -17.15 -18.73 -12.89 0 0 Z " fill="#44525E" transform="translate(192.98046875,427.05078125)"/>
<path d="M0 0 C80.52 0 161.04 0 244 0 C244 10.89 244 21.78 244 33 C227.77 38.61 211.89 43.85 195 47 C193.78 47.24 193.78 47.24 192.54 47.49 C164.28 52.97 131.22 52.43 103 47 C101.95 46.81 100.9 46.61 99.81 46.41 C65.3 39.92 26.24 26.39 0 2 C0 1.34 0 0.68 0 0 Z " fill="#44525E" transform="translate(1036,0)"/>
</svg>
